P3
50 100
255
0 0 0
2 0 0
5 0 0
7 0 0
10 0 0
12 0 0
15 0 0
18 0 0
20 0 0
23 0 0
25 0 0
28 0 0
30 0 0
33 0 0
36 0 0
38 0 0
41 0 0
43 0 0
46 0 0
48 0 0
51 0 0
54 0 0
56 0 0
59 0 0
61 0 0
64 0 0
66 0 0
69 0 0
72 0 0
74 0 0
77 0 0
79 0 0
82 0 0
85 0 0
87 0 0
90 0 0
92 0 0
95 0 0
97 0 0
100 0 0
103 0 0
105 0 0
108 0 0
110 0 0
113 0 0
115 0 0
118 0 0
121 0 0
123 0 0
126 0 0
128 0 0
131 0 0
133 0 0
136 0 0
139 0 0
141 0 0
144 0 0
146 0 0
149 0 0
151 0 0
154 0 0
157 0 0
159 0 0
162 0 0
164 0 0
167 0 0
170 0 0
172 0 0
175 0 0
177 0 0
180 0 0
182 0 0
185 0 0
188 0 0
190 0 0
193 0 0
195 0 0
198 0 0
200 0 0
203 0 0
206 0 0
208 0 0
211 0 0
213 0 0
216 0 0
218 0 0
221 0 0
224 0 0
226 0 0
229 0 0
231 0 0
234 0 0
236 0 0
239 0 0
242 0 0
244 0 0
247 0 0
249 0 0
252 0 0
255 0 0
0 5 0
2 5 0
5 5 0
7 5 0
10 5 0
12 5 0
15 5 0
18 5 0
20 5 0
23 5 0
25 5 0
28 5 0
30 5 0
33 5 0
36 5 0
38 5 0
41 5 0
43 5 0
46 5 0
48 5 0
51 5 0
54 5 0
56 5 0
59 5 0
61 5 0
64 5 0
66 5 0
69 5 0
72 5 0
74 5 0
77 5 0
79 5 0
82 5 0
85 5 0
87 5 0
90 5 0
92 5 0
95 5 0
97 5 0
100 5 0
103 5 0
105 5 0
108 5 0
110 5 0
113 5 0
115 5 0
118 5 0
121 5 0
123 5 0
126 5 0
128 5 0
131 5 0
133 5 0
136 5 0
139 5 0
141 5 0
144 5 0
146 5 0
149 5 0
151 5 0
154 5 0
157 5 0
159 5 0
162 5 0
164 5 0
167 5 0
170 5 0
172 5 0
175 5 0
177 5 0
180 5 0
182 5 0
185 5 0
188 5 0
190 5 0
193 5 0
195 5 0
198 5 0
200 5 0
203 5 0
206 5 0
208 5 0
211 5 0
213 5 0
216 5 0
218 5 0
221 5 0
224 5 0
226 5 0
229 5 0
231 5 0
234 5 0
236 5 0
239 5 0
242 5 0
244 5 0
247 5 0
249 5 0
252 5 0
255 5 0
0 10 0
2 10 0
5 10 0
7 10 0
10 10 0
12 10 0
15 10 0
18 10 0
20 10 0
23 10 0
25 10 0
28 10 0
30 10 0
33 10 0
36 10 0
38 10 0
41 10 0
43 10 0
46 10 0
48 10 0
51 10 0
54 10 0
56 10 0
59 10 0
61 10 0
64 10 0
66 10 0
69 10 0
72 10 0
74 10 0
77 10 0
79 10 0
82 10 0
85 10 0
87 10 0
90 10 0
92 10 0
95 10 0
97 10 0
100 10 0
103 10 0
105 10 0
108 10 0
110 10 0
113 10 0
115 10 0
118 10 0
121 10 0
123 10 0
126 10 0
128 10 0
131 10 0
133 10 0
136 10 0
139 10 0
141 10 0
144 10 0
146 10 0
149 10 0
151 10 0
154 10 0
157 10 0
159 10 0
162 10 0
164 10 0
167 10 0
170 10 0
172 10 0
175 10 0
177 10 0
180 10 0
182 10 0
185 10 0
188 10 0
190 10 0
193 10 0
195 10 0
198 10 0
200 10 0
203 10 0
206 10 0
208 10 0
211 10 0
213 10 0
216 10 0
218 10 0
221 10 0
224 10 0
226 10 0
229 10 0
231 10 0
234 10 0
236 10 0
239 10 0
242 10 0
244 10 0
247 10 0
249 10 0
252 10 0
255 10 0
0 15 0
2 15 0
5 15 0
7 15 0
10 15 0
12 15 0
15 15 0
18 15 0
20 15 0
23 15 0
25 15 0
28 15 0
30 15 0
33 15 0
36 15 0
38 15 0
41 15 0
43 15 0
46 15 0
48 15 0
51 15 0
54 15 0
56 15 0
59 15 0
61 15 0
64 15 0
66 15 0
69 15 0
72 15 0
74 15 0
77 15 0
79 15 0
82 15 0
85 15 0
87 15 0
90 15 0
92 15 0
95 15 0
97 15 0
100 15 0
103 15 0
105 15 0
108 15 0
110 15 0
113 15 0
115 15 0
118 15 0
121 15 0
123 15 0
126 15 0
128 15 0
131 15 0
133 15 0
136 15 0
139 15 0
141 15 0
144 15 0
146 15 0
149 15 0
151 15 0
154 15 0
157 15 0
159 15 0
162 15 0
164 15 0
167 15 0
170 15 0
172 15 0
175 15 0
177 15 0
180 15 0
182 15 0
185 15 0
188 15 0
190 15 0
193 15 0
195 15 0
198 15 0
200 15 0
203 15 0
206 15 0
208 15 0
211 15 0
213 15 0
216 15 0
218 15 0
221 15 0
224 15 0
226 15 0
229 15 0
231 15 0
234 15 0
236 15 0
239 15 0
242 15 0
244 15 0
247 15 0
249 15 0
252 15 0
255 15 0
0 20 0
2 20 0
5 20 0
7 20 0
10 20 0
12 20 0
15 20 0
18 20 0
20 20 0
23 20 0
25 20 0
28 20 0
30 20 0
33 20 0
36 20 0
38 20 0
41 20 0
43 20 0
46 20 0
48 20 0
51 20 0
54 20 0
56 20 0
59 20 0
61 20 0
64 20 0
66 20 0
69 20 0
72 20 0
74 20 0
77 20 0
79 20 0
82 20 0
85 20 0
87 20 0
90 20 0
92 20 0
95 20 0
97 20 0
100 20 0
103 20 0
105 20 0
108 20 0
110 20 0
113 20 0
115 20 0
118 20 0
121 20 0
123 20 0
126 20 0
128 20 0
131 20 0
133 20 0
136 20 0
139 20 0
141 20 0
144 20 0
146 20 0
149 20 0
151 20 0
154 20 0
157 20 0
159 20 0
162 20 0
164 20 0
167 20 0
170 20 0
172 20 0
175 20 0
177 20 0
180 20 0
182 20 0
185 20 0
188 20 0
190 20 0
193 20 0
195 20 0
198 20 0
200 20 0
203 20 0
206 20 0
208 20 0
211 20 0
213 20 0
216 20 0
218 20 0
221 20 0
224 20 0
226 20 0
229 20 0
231 20 0
234 20 0
236 20 0
239 20 0
242 20 0
244 20 0
247 20 0
249 20 0
252 20 0
255 20 0
0 26 0
2 26 0
5 26 0
7 26 0
10 26 0
12 26 0
15 26 0
18 26 0
20 26 0
23 26 0
25 26 0
28 26 0
30 26 0
33 26 0
36 26 0
38 26 0
41 26 0
43 26 0
46 26 0
48 26 0
51 26 0
54 26 0
56 26 0
59 26 0
61 26 0
64 26 0
66 26 0
69 26 0
72 26 0
74 26 0
77 26 0
79 26 0
82 26 0
85 26 0
87 26 0
90 26 0
92 26 0
95 26 0
97 26 0
100 26 0
103 26 0
105 26 0
108 26 0
110 26 0
113 26 0
115 26 0
118 26 0
121 26 0
123 26 0
126 26 0
128 26 0
131 26 0
133 26 0
136 26 0
139 26 0
141 26 0
144 26 0
146 26 0
149 26 0
151 26 0
154 26 0
157 26 0
159 26 0
162 26 0
164 26 0
167 26 0
170 26 0
172 26 0
175 26 0
177 26 0
180 26 0
182 26 0
185 26 0
188 26 0
190 26 0
193 26 0
195 26 0
198 26 0
200 26 0
203 26 0
206 26 0
208 26 0
211 26 0
213 26 0
216 26 0
218 26 0
221 26 0
224 26 0
226 26 0
229 26 0
231 26 0
234 26 0
236 26 0
239 26 0
242 26 0
244 26 0
247 26 0
249 26 0
252 26 0
255 26 0
0 31 0
2 31 0
5 31 0
7 31 0
10 31 0
12 31 0
15 31 0
18 31 0
20 31 0
23 31 0
25 31 0
28 31 0
30 31 0
33 31 0
36 31 0
38 31 0
41 31 0
43 31 0
46 31 0
48 31 0
51 31 0
54 31 0
56 31 0
59 31 0
61 31 0
64 31 0
66 31 0
69 31 0
72 31 0
74 31 0
77 31 0
79 31 0
82 31 0
85 31 0
87 31 0
90 31 0
92 31 0
95 31 0
97 31 0
100 31 0
103 31 0
105 31 0
108 31 0
110 31 0
113 31 0
115 31 0
118 31 0
121 31 0
123 31 0
126 31 0
128 31 0
131 31 0
133 31 0
136 31 0
139 31 0
141 31 0
144 31 0
146 31 0
149 31 0
151 31 0
154 31 0
157 31 0
159 31 0
162 31 0
164 31 0
167 31 0
170 31 0
172 31 0
175 31 0
177 31 0
180 31 0
182 31 0
185 31 0
188 31 0
190 31 0
193 31 0
195 31 0
198 31 0
200 31 0
203 31 0
206 31 0
208 31 0
211 31 0
213 31 0
216 31 0
218 31 0
221 31 0
224 31 0
226 31 0
229 31 0
231 31 0
234 31 0
236 31 0
239 31 0
242 31 0
244 31 0
247 31 0
249 31 0
252 31 0
255 31 0
0 36 0
2 36 0
5 36 0
7 36 0
10 36 0
12 36 0
15 36 0
18 36 0
20 36 0
23 36 0
25 36 0
28 36 0
30 36 0
33 36 0
36 36 0
38 36 0
41 36 0
43 36 0
46 36 0
48 36 0
51 36 0
54 36 0
56 36 0
59 36 0
61 36 0
64 36 0
66 36 0
69 36 0
72 36 0
74 36 0
77 36 0
79 36 0
82 36 0
85 36 0
87 36 0
90 36 0
92 36 0
95 36 0
97 36 0
100 36 0
103 36 0
105 36 0
108 36 0
110 36 0
113 36 0
115 36 0
118 36 0
121 36 0
123 36 0
126 36 0
128 36 0
131 36 0
133 36 0
136 36 0
139 36 0
141 36 0
144 36 0
146 36 0
149 36 0
151 36 0
154 36 0
157 36 0
159 36 0
162 36 0
164 36 0
167 36 0
170 36 0
172 36 0
175 36 0
177 36 0
180 36 0
182 36 0
185 36 0
188 36 0
190 36 0
193 36 0
195 36 0
198 36 0
200 36 0
203 36 0
206 36 0
208 36 0
211 36 0
213 36 0
216 36 0
218 36 0
221 36 0
224 36 0
226 36 0
229 36 0
231 36 0
234 36 0
236 36 0
239 36 0
242 36 0
244 36 0
247 36 0
249 36 0
252 36 0
255 36 0
0 41 0
2 41 0
5 41 0
7 41 0
10 41 0
12 41 0
15 41 0
18 41 0
20 41 0
23 41 0
25 41 0
28 41 0
30 41 0
33 41 0
36 41 0
38 41 0
41 41 0
43 41 0
46 41 0
48 41 0
51 41 0
54 41 0
56 41 0
59 41 0
61 41 0
64 41 0
66 41 0
69 41 0
72 41 0
74 41 0
77 41 0
79 41 0
82 41 0
85 41 0
87 41 0
90 41 0
92 41 0
95 41 0
97 41 0
100 41 0
103 41 0
105 41 0
108 41 0
110 41 0
113 41 0
115 41 0
118 41 0
121 41 0
123 41 0
126 41 0
128 41 0
131 41 0
133 41 0
136 41 0
139 41 0
141 41 0
144 41 0
146 41 0
149 41 0
151 41 0
154 41 0
157 41 0
159 41 0
162 41 0
164 41 0
167 41 0
170 41 0
172 41 0
175 41 0
177 41 0
180 41 0
182 41 0
185 41 0
188 41 0
190 41 0
193 41 0
195 41 0
198 41 0
200 41 0
203 41 0
206 41 0
208 41 0
211 41 0
213 41 0
216 41 0
218 41 0
221 41 0
224 41 0
226 41 0
229 41 0
231 41 0
234 41 0
236 41 0
239 41 0
242 41 0
244 41 0
247 41 0
249 41 0
252 41 0
255 41 0
0 46 0
2 46 0
5 46 0
7 46 0
10 46 0
12 46 0
15 46 0
18 46 0
20 46 0
23 46 0
25 46 0
28 46 0
30 46 0
33 46 0
36 46 0
38 46 0
41 46 0
43 46 0
46 46 0
48 46 0
51 46 0
54 46 0
56 46 0
59 46 0
61 46 0
64 46 0
66 46 0
69 46 0
72 46 0
74 46 0
77 46 0
79 46 0
82 46 0
85 46 0
87 46 0
90 46 0
92 46 0
95 46 0
97 46 0
100 46 0
103 46 0
105 46 0
108 46 0
110 46 0
113 46 0
115 46 0
118 46 0
121 46 0
123 46 0
126 46 0
128 46 0
131 46 0
133 46 0
136 46 0
139 46 0
141 46 0
144 46 0
146 46 0
149 46 0
151 46 0
154 46 0
157 46 0
159 46 0
162 46 0
164 46 0
167 46 0
170 46 0
172 46 0
175 46 0
177 46 0
180 46 0
182 46 0
185 46 0
188 46 0
190 46 0
193 46 0
195 46 0
198 46 0
200 46 0
203 46 0
206 46 0
208 46 0
211 46 0
213 46 0
216 46 0
218 46 0
221 46 0
224 46 0
226 46 0
229 46 0
231 46 0
234 46 0
236 46 0
239 46 0
242 46 0
244 46 0
247 46 0
249 46 0
252 46 0
255 46 0
0 52 0
2 52 0
5 52 0
7 52 0
10 52 0
12 52 0
15 52 0
18 52 0
20 52 0
23 52 0
25 52 0
28 52 0
30 52 0
33 52 0
36 52 0
38 52 0
41 52 0
43 52 0
46 52 0
48 52 0
51 52 0
54 52 0
56 52 0
59 52 0
61 52 0
64 52 0
66 52 0
69 52 0
72 52 0
74 52 0
77 52 0
79 52 0
82 52 0
85 52 0
87 52 0
90 52 0
92 52 0
95 52 0
97 52 0
100 52 0
103 52 0
105 52 0
108 52 0
110 52 0
113 52 0
115 52 0
118 52 0
121 52 0
123 52 0
126 52 0
128 52 0
131 52 0
133 52 0
136 52 0
139 52 0
141 52 0
144 52 0
146 52 0
149 52 0
151 52 0
154 52 0
157 52 0
159 52 0
162 52 0
164 52 0
167 52 0
170 52 0
172 52 0
175 52 0
177 52 0
180 52 0
182 52 0
185 52 0
188 52 0
190 52 0
193 52 0
195 52 0
198 52 0
200 52 0
203 52 0
206 52 0
208 52 0
211 52 0
213 52 0
216 52 0
218 52 0
221 52 0
224 52 0
226 52 0
229 52 0
231 52 0
234 52 0
236 52 0
239 52 0
242 52 0
244 52 0
247 52 0
249 52 0
252 52 0
255 52 0
0 57 0
2 57 0
5 57 0
7 57 0
10 57 0
12 57 0
15 57 0
18 57 0
20 57 0
23 57 0
25 57 0
28 57 0
30 57 0
33 57 0
36 57 0
38 57 0
41 57 0
43 57 0
46 57 0
48 57 0
51 57 0
54 57 0
56 57 0
59 57 0
61 57 0
64 57 0
66 57 0
69 57 0
72 57 0
74 57 0
77 57 0
79 57 0
82 57 0
85 57 0
87 57 0
90 57 0
92 57 0
95 57 0
97 57 0
100 57 0
103 57 0
105 57 0
108 57 0
110 57 0
113 57 0
115 57 0
118 57 0
121 57 0
123 57 0
126 57 0
128 57 0
131 57 0
133 57 0
136 57 0
139 57 0
141 57 0
144 57 0
146 57 0
149 57 0
151 57 0
154 57 0
157 57 0
159 57 0
162 57 0
164 57 0
167 57 0
170 57 0
172 57 0
175 57 0
177 57 0
180 57 0
182 57 0
185 57 0
188 57 0
190 57 0
193 57 0
195 57 0
198 57 0
200 57 0
203 57 0
206 57 0
208 57 0
211 57 0
213 57 0
216 57 0
218 57 0
221 57 0
224 57 0
226 57 0
229 57 0
231 57 0
234 57 0
236 57 0
239 57 0
242 57 0
244 57 0
247 57 0
249 57 0
252 57 0
255 57 0
0 62 0
2 62 0
5 62 0
7 62 0
10 62 0
12 62 0
15 62 0
18 62 0
20 62 0
23 62 0
25 62 0
28 62 0
30 62 0
33 62 0
36 62 0
38 62 0
41 62 0
43 62 0
46 62 0
48 62 0
51 62 0
54 62 0
56 62 0
59 62 0
61 62 0
64 62 0
66 62 0
69 62 0
72 62 0
74 62 0
77 62 0
79 62 0
82 62 0
85 62 0
87 62 0
90 62 0
92 62 0
95 62 0
97 62 0
100 62 0
103 62 0
105 62 0
108 62 0
110 62 0
113 62 0
115 62 0
118 62 0
121 62 0
123 62 0
126 62 0
128 62 0
131 62 0
133 62 0
136 62 0
139 62 0
141 62 0
144 62 0
146 62 0
149 62 0
151 62 0
154 62 0
157 62 0
159 62 0
162 62 0
164 62 0
167 62 0
170 62 0
172 62 0
175 62 0
177 62 0
180 62 0
182 62 0
185 62 0
188 62 0
190 62 0
193 62 0
195 62 0
198 62 0
200 62 0
203 62 0
206 62 0
208 62 0
211 62 0
213 62 0
216 62 0
218 62 0
221 62 0
224 62 0
226 62 0
229 62 0
231 62 0
234 62 0
236 62 0
239 62 0
242 62 0
244 62 0
247 62 0
249 62 0
252 62 0
255 62 0
0 67 0
2 67 0
5 67 0
7 67 0
10 67 0
12 67 0
15 67 0
18 67 0
20 67 0
23 67 0
25 67 0
28 67 0
30 67 0
33 67 0
36 67 0
38 67 0
41 67 0
43 67 0
46 67 0
48 67 0
51 67 0
54 67 0
56 67 0
59 67 0
61 67 0
64 67 0
66 67 0
69 67 0
72 67 0
74 67 0
77 67 0
79 67 0
82 67 0
85 67 0
87 67 0
90 67 0
92 67 0
95 67 0
97 67 0
100 67 0
103 67 0
105 67 0
108 67 0
110 67 0
113 67 0
115 67 0
118 67 0
121 67 0
123 67 0
126 67 0
128 67 0
131 67 0
133 67 0
136 67 0
139 67 0
141 67 0
144 67 0
146 67 0
149 67 0
151 67 0
154 67 0
157 67 0
159 67 0
162 67 0
164 67 0
167 67 0
170 67 0
172 67 0
175 67 0
177 67 0
180 67 0
182 67 0
185 67 0
188 67 0
190 67 0
193 67 0
195 67 0
198 67 0
200 67 0
203 67 0
206 67 0
208 67 0
211 67 0
213 67 0
216 67 0
218 67 0
221 67 0
224 67 0
226 67 0
229 67 0
231 67 0
234 67 0
236 67 0
239 67 0
242 67 0
244 67 0
247 67 0
249 67 0
252 67 0
255 67 0
0 72 0
2 72 0
5 72 0
7 72 0
10 72 0
12 72 0
15 72 0
18 72 0
20 72 0
23 72 0
25 72 0
28 72 0
30 72 0
33 72 0
36 72 0
38 72 0
41 72 0
43 72 0
46 72 0
48 72 0
51 72 0
54 72 0
56 72 0
59 72 0
61 72 0
64 72 0
66 72 0
69 72 0
72 72 0
74 72 0
77 72 0
79 72 0
82 72 0
85 72 0
87 72 0
90 72 0
92 72 0
95 72 0
97 72 0
100 72 0
103 72 0
105 72 0
108 72 0
110 72 0
113 72 0
115 72 0
118 72 0
121 72 0
123 72 0
126 72 0
128 72 0
131 72 0
133 72 0
136 72 0
139 72 0
141 72 0
144 72 0
146 72 0
149 72 0
151 72 0
154 72 0
157 72 0
159 72 0
162 72 0
164 72 0
167 72 0
170 72 0
172 72 0
175 72 0
177 72 0
180 72 0
182 72 0
185 72 0
188 72 0
190 72 0
193 72 0
195 72 0
198 72 0
200 72 0
203 72 0
206 72 0
208 72 0
211 72 0
213 72 0
216 72 0
218 72 0
221 72 0
224 72 0
226 72 0
229 72 0
231 72 0
234 72 0
236 72 0
239 72 0
242 72 0
244 72 0
247 72 0
249 72 0
252 72 0
255 72 0
0 78 0
2 78 0
5 78 0
7 78 0
10 78 0
12 78 0
15 78 0
18 78 0
20 78 0
23 78 0
25 78 0
28 78 0
30 78 0
33 78 0
36 78 0
38 78 0
41 78 0
43 78 0
46 78 0
48 78 0
51 78 0
54 78 0
56 78 0
59 78 0
61 78 0
64 78 0
66 78 0
69 78 0
72 78 0
74 78 0
77 78 0
79 78 0
82 78 0
85 78 0
87 78 0
90 78 0
92 78 0
95 78 0
97 78 0
100 78 0
103 78 0
105 78 0
108 78 0
110 78 0
113 78 0
115 78 0
118 78 0
121 78 0
123 78 0
126 78 0
128 78 0
131 78 0
133 78 0
136 78 0
139 78 0
141 78 0
144 78 0
146 78 0
149 78 0
151 78 0
154 78 0
157 78 0
159 78 0
162 78 0
164 78 0
167 78 0
170 78 0
172 78 0
175 78 0
177 78 0
180 78 0
182 78 0
185 78 0
188 78 0
190 78 0
193 78 0
195 78 0
198 78 0
200 78 0
203 78 0
206 78 0
208 78 0
211 78 0
213 78 0
216 78 0
218 78 0
221 78 0
224 78 0
226 78 0
229 78 0
231 78 0
234 78 0
236 78 0
239 78 0
242 78 0
244 78 0
247 78 0
249 78 0
252 78 0
255 78 0
0 83 0
2 83 0
5 83 0
7 83 0
10 83 0
12 83 0
15 83 0
18 83 0
20 83 0
23 83 0
25 83 0
28 83 0
30 83 0
33 83 0
36 83 0
38 83 0
41 83 0
43 83 0
46 83 0
48 83 0
51 83 0
54 83 0
56 83 0
59 83 0
61 83 0
64 83 0
66 83 0
69 83 0
72 83 0
74 83 0
77 83 0
79 83 0
82 83 0
85 83 0
87 83 0
90 83 0
92 83 0
95 83 0
97 83 0
100 83 0
103 83 0
105 83 0
108 83 0
110 83 0
113 83 0
115 83 0
118 83 0
121 83 0
123 83 0
126 83 0
128 83 0
131 83 0
133 83 0
136 83 0
139 83 0
141 83 0
144 83 0
146 83 0
149 83 0
151 83 0
154 83 0
157 83 0
159 83 0
162 83 0
164 83 0
167 83 0
170 83 0
172 83 0
175 83 0
177 83 0
180 83 0
182 83 0
185 83 0
188 83 0
190 83 0
193 83 0
195 83 0
198 83 0
200 83 0
203 83 0
206 83 0
208 83 0
211 83 0
213 83 0
216 83 0
218 83 0
221 83 0
224 83 0
226 83 0
229 83 0
231 83 0
234 83 0
236 83 0
239 83 0
242 83 0
244 83 0
247 83 0
249 83 0
252 83 0
255 83 0
0 88 0
2 88 0
5 88 0
7 88 0
10 88 0
12 88 0
15 88 0
18 88 0
20 88 0
23 88 0
25 88 0
28 88 0
30 88 0
33 88 0
36 88 0
38 88 0
41 88 0
43 88 0
46 88 0
48 88 0
51 88 0
54 88 0
56 88 0
59 88 0
61 88 0
64 88 0
66 88 0
69 88 0
72 88 0
74 88 0
77 88 0
79 88 0
82 88 0
85 88 0
87 88 0
90 88 0
92 88 0
95 88 0
97 88 0
100 88 0
103 88 0
105 88 0
108 88 0
110 88 0
113 88 0
115 88 0
118 88 0
121 88 0
123 88 0
126 88 0
128 88 0
131 88 0
133 88 0
136 88 0
139 88 0
141 88 0
144 88 0
146 88 0
149 88 0
151 88 0
154 88 0
157 88 0
159 88 0
162 88 0
164 88 0
167 88 0
170 88 0
172 88 0
175 88 0
177 88 0
180 88 0
182 88 0
185 88 0
188 88 0
190 88 0
193 88 0
195 88 0
198 88 0
200 88 0
203 88 0
206 88 0
208 88 0
211 88 0
213 88 0
216 88 0
218 88 0
221 88 0
224 88 0
226 88 0
229 88 0
231 88 0
234 88 0
236 88 0
239 88 0
242 88 0
244 88 0
247 88 0
249 88 0
252 88 0
255 88 0
0 93 0
2 93 0
5 93 0
7 93 0
10 93 0
12 93 0
15 93 0
18 93 0
20 93 0
23 93 0
25 93 0
28 93 0
30 93 0
33 93 0
36 93 0
38 93 0
41 93 0
43 93 0
46 93 0
48 93 0
51 93 0
54 93 0
56 93 0
59 93 0
61 93 0
64 93 0
66 93 0
69 93 0
72 93 0
74 93 0
77 93 0
79 93 0
82 93 0
85 93 0
87 93 0
90 93 0
92 93 0
95 93 0
97 93 0
100 93 0
103 93 0
105 93 0
108 93 0
110 93 0
113 93 0
115 93 0
118 93 0
121 93 0
123 93 0
126 93 0
128 93 0
131 93 0
133 93 0
136 93 0
139 93 0
141 93 0
144 93 0
146 93 0
149 93 0
151 93 0
154 93 0
157 93 0
159 93 0
162 93 0
164 93 0
167 93 0
170 93 0
172 93 0
175 93 0
177 93 0
180 93 0
182 93 0
185 93 0
188 93 0
190 93 0
193 93 0
195 93 0
198 93 0
200 93 0
203 93 0
206 93 0
208 93 0
211 93 0
213 93 0
216 93 0
218 93 0
221 93 0
224 93 0
226 93 0
229 93 0
231 93 0
234 93 0
236 93 0
239 93 0
242 93 0
244 93 0
247 93 0
249 93 0
252 93 0
255 93 0
0 98 0
2 98 0
5 98 0
7 98 0
10 98 0
12 98 0
15 98 0
18 98 0
20 98 0
23 98 0
25 98 0
28 98 0
30 98 0
33 98 0
36 98 0
38 98 0
41 98 0
43 98 0
46 98 0
48 98 0
51 98 0
54 98 0
56 98 0
59 98 0
61 98 0
64 98 0
66 98 0
69 98 0
72 98 0
74 98 0
77 98 0
79 98 0
82 98 0
85 98 0
87 98 0
90 98 0
92 98 0
95 98 0
97 98 0
100 98 0
103 98 0
105 98 0
108 98 0
110 98 0
113 98 0
115 98 0
118 98 0
121 98 0
123 98 0
126 98 0
128 98 0
131 98 0
133 98 0
136 98 0
139 98 0
141 98 0
144 98 0
146 98 0
149 98 0
151 98 0
154 98 0
157 98 0
159 98 0
162 98 0
164 98 0
167 98 0
170 98 0
172 98 0
175 98 0
177 98 0
180 98 0
182 98 0
185 98 0
188 98 0
190 98 0
193 98 0
195 98 0
198 98 0
200 98 0
203 98 0
206 98 0
208 98 0
211 98 0
213 98 0
216 98 0
218 98 0
221 98 0
224 98 0
226 98 0
229 98 0
231 98 0
234 98 0
236 98 0
239 98 0
242 98 0
244 98 0
247 98 0
249 98 0
252 98 0
255 98 0
0 104 0
2 104 0
5 104 0
7 104 0
10 104 0
12 104 0
15 104 0
18 104 0
20 104 0
23 104 0
25 104 0
28 104 0
30 104 0
33 104 0
36 104 0
38 104 0
41 104 0
43 104 0
46 104 0
48 104 0
51 104 0
54 104 0
56 104 0
59 104 0
61 104 0
64 104 0
66 104 0
69 104 0
72 104 0
74 104 0
77 104 0
79 104 0
82 104 0
85 104 0
87 104 0
90 104 0
92 104 0
95 104 0
97 104 0
100 104 0
103 104 0
105 104 0
108 104 0
110 104 0
113 104 0
115 104 0
118 104 0
121 104 0
123 104 0
126 104 0
128 104 0
131 104 0
133 104 0
136 104 0
139 104 0
141 104 0
144 104 0
146 104 0
149 104 0
151 104 0
154 104 0
157 104 0
159 104 0
162 104 0
164 104 0
167 104 0
170 104 0
172 104 0
175 104 0
177 104 0
180 104 0
182 104 0
185 104 0
188 104 0
190 104 0
193 104 0
195 104 0
198 104 0
200 104 0
203 104 0
206 104 0
208 104 0
211 104 0
213 104 0
216 104 0
218 104 0
221 104 0
224 104 0
226 104 0
229 104 0
231 104 0
234 104 0
236 104 0
239 104 0
242 104 0
244 104 0
247 104 0
249 104 0
252 104 0
255 104 0
0 109 0
2 109 0
5 109 0
7 109 0
10 109 0
12 109 0
15 109 0
18 109 0
20 109 0
23 109 0
25 109 0
28 109 0
30 109 0
33 109 0
36 109 0
38 109 0
41 109 0
43 109 0
46 109 0
48 109 0
51 109 0
54 109 0
56 109 0
59 109 0
61 109 0
64 109 0
66 109 0
69 109 0
72 109 0
74 109 0
77 109 0
79 109 0
82 109 0
85 109 0
87 109 0
90 109 0
92 109 0
95 109 0
97 109 0
100 109 0
103 109 0
105 109 0
108 109 0
110 109 0
113 109 0
115 109 0
118 109 0
121 109 0
123 109 0
126 109 0
128 109 0
131 109 0
133 109 0
136 109 0
139 109 0
141 109 0
144 109 0
146 109 0
149 109 0
151 109 0
154 109 0
157 109 0
159 109 0
162 109 0
164 109 0
167 109 0
170 109 0
172 109 0
175 109 0
177 109 0
180 109 0
182 109 0
185 109 0
188 109 0
190 109 0
193 109 0
195 109 0
198 109 0
200 109 0
203 109 0
206 109 0
208 109 0
211 109 0
213 109 0
216 109 0
218 109 0
221 109 0
224 109 0
226 109 0
229 109 0
231 109 0
234 109 0
236 109 0
239 109 0
242 109 0
244 109 0
247 109 0
249 109 0
252 109 0
255 109 0
0 114 0
2 114 0
5 114 0
7 114 0
10 114 0
12 114 0
15 114 0
18 114 0
20 114 0
23 114 0
25 114 0
28 114 0
30 114 0
33 114 0
36 114 0
38 114 0
41 114 0
43 114 0
46 114 0
48 114 0
51 114 0
54 114 0
56 114 0
59 114 0
61 114 0
64 114 0
66 114 0
69 114 0
72 114 0
74 114 0
77 114 0
79 114 0
82 114 0
85 114 0
87 114 0
90 114 0
92 114 0
95 114 0
97 114 0
100 114 0
103 114 0
105 114 0
108 114 0
110 114 0
113 114 0
115 114 0
118 114 0
121 114 0
123 114 0
126 114 0
128 114 0
131 114 0
133 114 0
136 114 0
139 114 0
141 114 0
144 114 0
146 114 0
149 114 0
151 114 0
154 114 0
157 114 0
159 114 0
162 114 0
164 114 0
167 114 0
170 114 0
172 114 0
175 114 0
177 114 0
180 114 0
182 114 0
185 114 0
188 114 0
190 114 0
193 114 0
195 114 0
198 114 0
200 114 0
203 114 0
206 114 0
208 114 0
211 114 0
213 114 0
216 114 0
218 114 0
221 114 0
224 114 0
226 114 0
229 114 0
231 114 0
234 114 0
236 114 0
239 114 0
242 114 0
244 114 0
247 114 0
249 114 0
252 114 0
255 114 0
0 119 0
2 119 0
5 119 0
7 119 0
10 119 0
12 119 0
15 119 0
18 119 0
20 119 0
23 119 0
25 119 0
28 119 0
30 119 0
33 119 0
36 119 0
38 119 0
41 119 0
43 119 0
46 119 0
48 119 0
51 119 0
54 119 0
56 119 0
59 119 0
61 119 0
64 119 0
66 119 0
69 119 0
72 119 0
74 119 0
77 119 0
79 119 0
82 119 0
85 119 0
87 119 0
90 119 0
92 119 0
95 119 0
97 119 0
100 119 0
103 119 0
105 119 0
108 119 0
110 119 0
113 119 0
115 119 0
118 119 0
121 119 0
123 119 0
126 119 0
128 119 0
131 119 0
133 119 0
136 119 0
139 119 0
141 119 0
144 119 0
146 119 0
149 119 0
151 119 0
154 119 0
157 119 0
159 119 0
162 119 0
164 119 0
167 119 0
170 119 0
172 119 0
175 119 0
177 119 0
180 119 0
182 119 0
185 119 0
188 119 0
190 119 0
193 119 0
195 119 0
198 119 0
200 119 0
203 119 0
206 119 0
208 119 0
211 119 0
213 119 0
216 119 0
218 119 0
221 119 0
224 119 0
226 119 0
229 119 0
231 119 0
234 119 0
236 119 0
239 119 0
242 119 0
244 119 0
247 119 0
249 119 0
252 119 0
255 119 0
0 124 0
2 124 0
5 124 0
7 124 0
10 124 0
12 124 0
15 124 0
18 124 0
20 124 0
23 124 0
25 124 0
28 124 0
30 124 0
33 124 0
36 124 0
38 124 0
41 124 0
43 124 0
46 124 0
48 124 0
51 124 0
54 124 0
56 124 0
59 124 0
61 124 0
64 124 0
66 124 0
69 124 0
72 124 0
74 124 0
77 124 0
79 124 0
82 124 0
85 124 0
87 124 0
90 124 0
92 124 0
95 124 0
97 124 0
100 124 0
103 124 0
105 124 0
108 124 0
110 124 0
113 124 0
115 124 0
118 124 0
121 124 0
123 124 0
126 124 0
128 124 0
131 124 0
133 124 0
136 124 0
139 124 0
141 124 0
144 124 0
146 124 0
149 124 0
151 124 0
154 124 0
157 124 0
159 124 0
162 124 0
164 124 0
167 124 0
170 124 0
172 124 0
175 124 0
177 124 0
180 124 0
182 124 0
185 124 0
188 124 0
190 124 0
193 124 0
195 124 0
198 124 0
200 124 0
203 124 0
206 124 0
208 124 0
211 124 0
213 124 0
216 124 0
218 124 0
221 124 0
224 124 0
226 124 0
229 124 0
231 124 0
234 124 0
236 124 0
239 124 0
242 124 0
244 124 0
247 124 0
249 124 0
252 124 0
255 124 0
0 130 0
2 130 0
5 130 0
7 130 0
10 130 0
12 130 0
15 130 0
18 130 0
20 130 0
23 130 0
25 130 0
28 130 0
30 130 0
33 130 0
36 130 0
38 130 0
41 130 0
43 130 0
46 130 0
48 130 0
51 130 0
54 130 0
56 130 0
59 130 0
61 130 0
64 130 0
66 130 0
69 130 0
72 130 0
74 130 0
77 130 0
79 130 0
82 130 0
85 130 0
87 130 0
90 130 0
92 130 0
95 130 0
97 130 0
100 130 0
103 130 0
105 130 0
108 130 0
110 130 0
113 130 0
115 130 0
118 130 0
121 130 0
123 130 0
126 130 0
128 130 0
131 130 0
133 130 0
136 130 0
139 130 0
141 130 0
144 130 0
146 130 0
149 130 0
151 130 0
154 130 0
157 130 0
159 130 0
162 130 0
164 130 0
167 130 0
170 130 0
172 130 0
175 130 0
177 130 0
180 130 0
182 130 0
185 130 0
188 130 0
190 130 0
193 130 0
195 130 0
198 130 0
200 130 0
203 130 0
206 130 0
208 130 0
211 130 0
213 130 0
216 130 0
218 130 0
221 130 0
224 130 0
226 130 0
229 130 0
231 130 0
234 130 0
236 130 0
239 130 0
242 130 0
244 130 0
247 130 0
249 130 0
252 130 0
255 130 0
0 135 0
2 135 0
5 135 0
7 135 0
10 135 0
12 135 0
15 135 0
18 135 0
20 135 0
23 135 0
25 135 0
28 135 0
30 135 0
33 135 0
36 135 0
38 135 0
41 135 0
43 135 0
46 135 0
48 135 0
51 135 0
54 135 0
56 135 0
59 135 0
61 135 0
64 135 0
66 135 0
69 135 0
72 135 0
74 135 0
77 135 0
79 135 0
82 135 0
85 135 0
87 135 0
90 135 0
92 135 0
95 135 0
97 135 0
100 135 0
103 135 0
105 135 0
108 135 0
110 135 0
113 135 0
115 135 0
118 135 0
121 135 0
123 135 0
126 135 0
128 135 0
131 135 0
133 135 0
136 135 0
139 135 0
141 135 0
144 135 0
146 135 0
149 135 0
151 135 0
154 135 0
157 135 0
159 135 0
162 135 0
164 135 0
167 135 0
170 135 0
172 135 0
175 135 0
177 135 0
180 135 0
182 135 0
185 135 0
188 135 0
190 135 0
193 135 0
195 135 0
198 135 0
200 135 0
203 135 0
206 135 0
208 135 0
211 135 0
213 135 0
216 135 0
218 135 0
221 135 0
224 135 0
226 135 0
229 135 0
231 135 0
234 135 0
236 135 0
239 135 0
242 135 0
244 135 0
247 135 0
249 135 0
252 135 0
255 135 0
0 140 0
2 140 0
5 140 0
7 140 0
10 140 0
12 140 0
15 140 0
18 140 0
20 140 0
23 140 0
25 140 0
28 140 0
30 140 0
33 140 0
36 140 0
38 140 0
41 140 0
43 140 0
46 140 0
48 140 0
51 140 0
54 140 0
56 140 0
59 140 0
61 140 0
64 140 0
66 140 0
69 140 0
72 140 0
74 140 0
77 140 0
79 140 0
82 140 0
85 140 0
87 140 0
90 140 0
92 140 0
95 140 0
97 140 0
100 140 0
103 140 0
105 140 0
108 140 0
110 140 0
113 140 0
115 140 0
118 140 0
121 140 0
123 140 0
126 140 0
128 140 0
131 140 0
133 140 0
136 140 0
139 140 0
141 140 0
144 140 0
146 140 0
149 140 0
151 140 0
154 140 0
157 140 0
159 140 0
162 140 0
164 140 0
167 140 0
170 140 0
172 140 0
175 140 0
177 140 0
180 140 0
182 140 0
185 140 0
188 140 0
190 140 0
193 140 0
195 140 0
198 140 0
200 140 0
203 140 0
206 140 0
208 140 0
211 140 0
213 140 0
216 140 0
218 140 0
221 140 0
224 140 0
226 140 0
229 140 0
231 140 0
234 140 0
236 140 0
239 140 0
242 140 0
244 140 0
247 140 0
249 140 0
252 140 0
255 140 0
0 145 0
2 145 0
5 145 0
7 145 0
10 145 0
12 145 0
15 145 0
18 145 0
20 145 0
23 145 0
25 145 0
28 145 0
30 145 0
33 145 0
36 145 0
38 145 0
41 145 0
43 145 0
46 145 0
48 145 0
51 145 0
54 145 0
56 145 0
59 145 0
61 145 0
64 145 0
66 145 0
69 145 0
72 145 0
74 145 0
77 145 0
79 145 0
82 145 0
85 145 0
87 145 0
90 145 0
92 145 0
95 145 0
97 145 0
100 145 0
103 145 0
105 145 0
108 145 0
110 145 0
113 145 0
115 145 0
118 145 0
121 145 0
123 145 0
126 145 0
128 145 0
131 145 0
133 145 0
136 145 0
139 145 0
141 145 0
144 145 0
146 145 0
149 145 0
151 145 0
154 145 0
157 145 0
159 145 0
162 145 0
164 145 0
167 145 0
170 145 0
172 145 0
175 145 0
177 145 0
180 145 0
182 145 0
185 145 0
188 145 0
190 145 0
193 145 0
195 145 0
198 145 0
200 145 0
203 145 0
206 145 0
208 145 0
211 145 0
213 145 0
216 145 0
218 145 0
221 145 0
224 145 0
226 145 0
229 145 0
231 145 0
234 145 0
236 145 0
239 145 0
242 145 0
244 145 0
247 145 0
249 145 0
252 145 0
255 145 0
0 150 0
2 150 0
5 150 0
7 150 0
10 150 0
12 150 0
15 150 0
18 150 0
20 150 0
23 150 0
25 150 0
28 150 0
30 150 0
33 150 0
36 150 0
38 150 0
41 150 0
43 150 0
46 150 0
48 150 0
51 150 0
54 150 0
56 150 0
59 150 0
61 150 0
64 150 0
66 150 0
69 150 0
72 150 0
74 150 0
77 150 0
79 150 0
82 150 0
85 150 0
87 150 0
90 150 0
92 150 0
95 150 0
97 150 0
100 150 0
103 150 0
105 150 0
108 150 0
110 150 0
113 150 0
115 150 0
118 150 0
121 150 0
123 150 0
126 150 0
128 150 0
131 150 0
133 150 0
136 150 0
139 150 0
141 150 0
144 150 0
146 150 0
149 150 0
151 150 0
154 150 0
157 150 0
159 150 0
162 150 0
164 150 0
167 150 0
170 150 0
172 150 0
175 150 0
177 150 0
180 150 0
182 150 0
185 150 0
188 150 0
190 150 0
193 150 0
195 150 0
198 150 0
200 150 0
203 150 0
206 150 0
208 150 0
211 150 0
213 150 0
216 150 0
218 150 0
221 150 0
224 150 0
226 150 0
229 150 0
231 150 0
234 150 0
236 150 0
239 150 0
242 150 0
244 150 0
247 150 0
249 150 0
252 150 0
255 150 0
0 156 0
2 156 0
5 156 0
7 156 0
10 156 0
12 156 0
15 156 0
18 156 0
20 156 0
23 156 0
25 156 0
28 156 0
30 156 0
33 156 0
36 156 0
38 156 0
41 156 0
43 156 0
46 156 0
48 156 0
51 156 0
54 156 0
56 156 0
59 156 0
61 156 0
64 156 0
66 156 0
69 156 0
72 156 0
74 156 0
77 156 0
79 156 0
82 156 0
85 156 0
87 156 0
90 156 0
92 156 0
95 156 0
97 156 0
100 156 0
103 156 0
105 156 0
108 156 0
110 156 0
113 156 0
115 156 0
118 156 0
121 156 0
123 156 0
126 156 0
128 156 0
131 156 0
133 156 0
136 156 0
139 156 0
141 156 0
144 156 0
146 156 0
149 156 0
151 156 0
154 156 0
157 156 0
159 156 0
162 156 0
164 156 0
167 156 0
170 156 0
172 156 0
175 156 0
177 156 0
180 156 0
182 156 0
185 156 0
188 156 0
190 156 0
193 156 0
195 156 0
198 156 0
200 156 0
203 156 0
206 156 0
208 156 0
211 156 0
213 156 0
216 156 0
218 156 0
221 156 0
224 156 0
226 156 0
229 156 0
231 156 0
234 156 0
236 156 0
239 156 0
242 156 0
244 156 0
247 156 0
249 156 0
252 156 0
255 156 0
0 161 0
2 161 0
5 161 0
7 161 0
10 161 0
12 161 0
15 161 0
18 161 0
20 161 0
23 161 0
25 161 0
28 161 0
30 161 0
33 161 0
36 161 0
38 161 0
41 161 0
43 161 0
46 161 0
48 161 0
51 161 0
54 161 0
56 161 0
59 161 0
61 161 0
64 161 0
66 161 0
69 161 0
72 161 0
74 161 0
77 161 0
79 161 0
82 161 0
85 161 0
87 161 0
90 161 0
92 161 0
95 161 0
97 161 0
100 161 0
103 161 0
105 161 0
108 161 0
110 161 0
113 161 0
115 161 0
118 161 0
121 161 0
123 161 0
126 161 0
128 161 0
131 161 0
133 161 0
136 161 0
139 161 0
141 161 0
144 161 0
146 161 0
149 161 0
151 161 0
154 161 0
157 161 0
159 161 0
162 161 0
164 161 0
167 161 0
170 161 0
172 161 0
175 161 0
177 161 0
180 161 0
182 161 0
185 161 0
188 161 0
190 161 0
193 161 0
195 161 0
198 161 0
200 161 0
203 161 0
206 161 0
208 161 0
211 161 0
213 161 0
216 161 0
218 161 0
221 161 0
224 161 0
226 161 0
229 161 0
231 161 0
234 161 0
236 161 0
239 161 0
242 161 0
244 161 0
247 161 0
249 161 0
252 161 0
255 161 0
0 166 0
2 166 0
5 166 0
7 166 0
10 166 0
12 166 0
15 166 0
18 166 0
20 166 0
23 166 0
25 166 0
28 166 0
30 166 0
33 166 0
36 166 0
38 166 0
41 166 0
43 166 0
46 166 0
48 166 0
51 166 0
54 166 0
56 166 0
59 166 0
61 166 0
64 166 0
66 166 0
69 166 0
72 166 0
74 166 0
77 166 0
79 166 0
82 166 0
85 166 0
87 166 0
90 166 0
92 166 0
95 166 0
97 166 0
100 166 0
103 166 0
105 166 0
108 166 0
110 166 0
113 166 0
115 166 0
118 166 0
121 166 0
123 166 0
126 166 0
128 166 0
131 166 0
133 166 0
136 166 0
139 166 0
141 166 0
144 166 0
146 166 0
149 166 0
151 166 0
154 166 0
157 166 0
159 166 0
162 166 0
164 166 0
167 166 0
170 166 0
172 166 0
175 166 0
177 166 0
180 166 0
182 166 0
185 166 0
188 166 0
190 166 0
193 166 0
195 166 0
198 166 0
200 166 0
203 166 0
206 166 0
208 166 0
211 166 0
213 166 0
216 166 0
218 166 0
221 166 0
224 166 0
226 166 0
229 166 0
231 166 0
234 166 0
236 166 0
239 166 0
242 166 0
244 166 0
247 166 0
249 166 0
252 166 0
255 166 0
0 171 0
2 171 0
5 171 0
7 171 0
10 171 0
12 171 0
15 171 0
18 171 0
20 171 0
23 171 0
25 171 0
28 171 0
30 171 0
33 171 0
36 171 0
38 171 0
41 171 0
43 171 0
46 171 0
48 171 0
51 171 0
54 171 0
56 171 0
59 171 0
61 171 0
64 171 0
66 171 0
69 171 0
72 171 0
74 171 0
77 171 0
79 171 0
82 171 0
85 171 0
87 171 0
90 171 0
92 171 0
95 171 0
97 171 0
100 171 0
103 171 0
105 171 0
108 171 0
110 171 0
113 171 0
115 171 0
118 171 0
121 171 0
123 171 0
126 171 0
128 171 0
131 171 0
133 171 0
136 171 0
139 171 0
141 171 0
144 171 0
146 171 0
149 171 0
151 171 0
154 171 0
157 171 0
159 171 0
162 171 0
164 171 0
167 171 0
170 171 0
172 171 0
175 171 0
177 171 0
180 171 0
182 171 0
185 171 0
188 171 0
190 171 0
193 171 0
195 171 0
198 171 0
200 171 0
203 171 0
206 171 0
208 171 0
211 171 0
213 171 0
216 171 0
218 171 0
221 171 0
224 171 0
226 171 0
229 171 0
231 171 0
234 171 0
236 171 0
239 171 0
242 171 0
244 171 0
247 171 0
249 171 0
252 171 0
255 171 0
0 176 0
2 176 0
5 176 0
7 176 0
10 176 0
12 176 0
15 176 0
18 176 0
20 176 0
23 176 0
25 176 0
28 176 0
30 176 0
33 176 0
36 176 0
38 176 0
41 176 0
43 176 0
46 176 0
48 176 0
51 176 0
54 176 0
56 176 0
59 176 0
61 176 0
64 176 0
66 176 0
69 176 0
72 176 0
74 176 0
77 176 0
79 176 0
82 176 0
85 176 0
87 176 0
90 176 0
92 176 0
95 176 0
97 176 0
100 176 0
103 176 0
105 176 0
108 176 0
110 176 0
113 176 0
115 176 0
118 176 0
121 176 0
123 176 0
126 176 0
128 176 0
131 176 0
133 176 0
136 176 0
139 176 0
141 176 0
144 176 0
146 176 0
149 176 0
151 176 0
154 176 0
157 176 0
159 176 0
162 176 0
164 176 0
167 176 0
170 176 0
172 176 0
175 176 0
177 176 0
180 176 0
182 176 0
185 176 0
188 176 0
190 176 0
193 176 0
195 176 0
198 176 0
200 176 0
203 176 0
206 176 0
208 176 0
211 176 0
213 176 0
216 176 0
218 176 0
221 176 0
224 176 0
226 176 0
229 176 0
231 176 0
234 176 0
236 176 0
239 176 0
242 176 0
244 176 0
247 176 0
249 176 0
252 176 0
255 176 0
0 182 0
2 182 0
5 182 0
7 182 0
10 182 0
12 182 0
15 182 0
18 182 0
20 182 0
23 182 0
25 182 0
28 182 0
30 182 0
33 182 0
36 182 0
38 182 0
41 182 0
43 182 0
46 182 0
48 182 0
51 182 0
54 182 0
56 182 0
59 182 0
61 182 0
64 182 0
66 182 0
69 182 0
72 182 0
74 182 0
77 182 0
79 182 0
82 182 0
85 182 0
87 182 0
90 182 0
92 182 0
95 182 0
97 182 0
100 182 0
103 182 0
105 182 0
108 182 0
110 182 0
113 182 0
115 182 0
118 182 0
121 182 0
123 182 0
126 182 0
128 182 0
131 182 0
133 182 0
136 182 0
139 182 0
141 182 0
144 182 0
146 182 0
149 182 0
151 182 0
154 182 0
157 182 0
159 182 0
162 182 0
164 182 0
167 182 0
170 182 0
172 182 0
175 182 0
177 182 0
180 182 0
182 182 0
185 182 0
188 182 0
190 182 0
193 182 0
195 182 0
198 182 0
200 182 0
203 182 0
206 182 0
208 182 0
211 182 0
213 182 0
216 182 0
218 182 0
221 182 0
224 182 0
226 182 0
229 182 0
231 182 0
234 182 0
236 182 0
239 182 0
242 182 0
244 182 0
247 182 0
249 182 0
252 182 0
255 182 0
0 187 0
2 187 0
5 187 0
7 187 0
10 187 0
12 187 0
15 187 0
18 187 0
20 187 0
23 187 0
25 187 0
28 187 0
30 187 0
33 187 0
36 187 0
38 187 0
41 187 0
43 187 0
46 187 0
48 187 0
51 187 0
54 187 0
56 187 0
59 187 0
61 187 0
64 187 0
66 187 0
69 187 0
72 187 0
74 187 0
77 187 0
79 187 0
82 187 0
85 187 0
87 187 0
90 187 0
92 187 0
95 187 0
97 187 0
100 187 0
103 187 0
105 187 0
108 187 0
110 187 0
113 187 0
115 187 0
118 187 0
121 187 0
123 187 0
126 187 0
128 187 0
131 187 0
133 187 0
136 187 0
139 187 0
141 187 0
144 187 0
146 187 0
149 187 0
151 187 0
154 187 0
157 187 0
159 187 0
162 187 0
164 187 0
167 187 0
170 187 0
172 187 0
175 187 0
177 187 0
180 187 0
182 187 0
185 187 0
188 187 0
190 187 0
193 187 0
195 187 0
198 187 0
200 187 0
203 187 0
206 187 0
208 187 0
211 187 0
213 187 0
216 187 0
218 187 0
221 187 0
224 187 0
226 187 0
229 187 0
231 187 0
234 187 0
236 187 0
239 187 0
242 187 0
244 187 0
247 187 0
249 187 0
252 187 0
255 187 0
0 192 0
2 192 0
5 192 0
7 192 0
10 192 0
12 192 0
15 192 0
18 192 0
20 192 0
23 192 0
25 192 0
28 192 0
30 192 0
33 192 0
36 192 0
38 192 0
41 192 0
43 192 0
46 192 0
48 192 0
51 192 0
54 192 0
56 192 0
59 192 0
61 192 0
64 192 0
66 192 0
69 192 0
72 192 0
74 192 0
77 192 0
79 192 0
82 192 0
85 192 0
87 192 0
90 192 0
92 192 0
95 192 0
97 192 0
100 192 0
103 192 0
105 192 0
108 192 0
110 192 0
113 192 0
115 192 0
118 192 0
121 192 0
123 192 0
126 192 0
128 192 0
131 192 0
133 192 0
136 192 0
139 192 0
141 192 0
144 192 0
146 192 0
149 192 0
151 192 0
154 192 0
157 192 0
159 192 0
162 192 0
164 192 0
167 192 0
170 192 0
172 192 0
175 192 0
177 192 0
180 192 0
182 192 0
185 192 0
188 192 0
190 192 0
193 192 0
195 192 0
198 192 0
200 192 0
203 192 0
206 192 0
208 192 0
211 192 0
213 192 0
216 192 0
218 192 0
221 192 0
224 192 0
226 192 0
229 192 0
231 192 0
234 192 0
236 192 0
239 192 0
242 192 0
244 192 0
247 192 0
249 192 0
252 192 0
255 192 0
0 197 0
2 197 0
5 197 0
7 197 0
10 197 0
12 197 0
15 197 0
18 197 0
20 197 0
23 197 0
25 197 0
28 197 0
30 197 0
33 197 0
36 197 0
38 197 0
41 197 0
43 197 0
46 197 0
48 197 0
51 197 0
54 197 0
56 197 0
59 197 0
61 197 0
64 197 0
66 197 0
69 197 0
72 197 0
74 197 0
77 197 0
79 197 0
82 197 0
85 197 0
87 197 0
90 197 0
92 197 0
95 197 0
97 197 0
100 197 0
103 197 0
105 197 0
108 197 0
110 197 0
113 197 0
115 197 0
118 197 0
121 197 0
123 197 0
126 197 0
128 197 0
131 197 0
133 197 0
136 197 0
139 197 0
141 197 0
144 197 0
146 197 0
149 197 0
151 197 0
154 197 0
157 197 0
159 197 0
162 197 0
164 197 0
167 197 0
170 197 0
172 197 0
175 197 0
177 197 0
180 197 0
182 197 0
185 197 0
188 197 0
190 197 0
193 197 0
195 197 0
198 197 0
200 197 0
203 197 0
206 197 0
208 197 0
211 197 0
213 197 0
216 197 0
218 197 0
221 197 0
224 197 0
226 197 0
229 197 0
231 197 0
234 197 0
236 197 0
239 197 0
242 197 0
244 197 0
247 197 0
249 197 0
252 197 0
255 197 0
0 202 0
2 202 0
5 202 0
7 202 0
10 202 0
12 202 0
15 202 0
18 202 0
20 202 0
23 202 0
25 202 0
28 202 0
30 202 0
33 202 0
36 202 0
38 202 0
41 202 0
43 202 0
46 202 0
48 202 0
51 202 0
54 202 0
56 202 0
59 202 0
61 202 0
64 202 0
66 202 0
69 202 0
72 202 0
74 202 0
77 202 0
79 202 0
82 202 0
85 202 0
87 202 0
90 202 0
92 202 0
95 202 0
97 202 0
100 202 0
103 202 0
105 202 0
108 202 0
110 202 0
113 202 0
115 202 0
118 202 0
121 202 0
123 202 0
126 202 0
128 202 0
131 202 0
133 202 0
136 202 0
139 202 0
141 202 0
144 202 0
146 202 0
149 202 0
151 202 0
154 202 0
157 202 0
159 202 0
162 202 0
164 202 0
167 202 0
170 202 0
172 202 0
175 202 0
177 202 0
180 202 0
182 202 0
185 202 0
188 202 0
190 202 0
193 202 0
195 202 0
198 202 0
200 202 0
203 202 0
206 202 0
208 202 0
211 202 0
213 202 0
216 202 0
218 202 0
221 202 0
224 202 0
226 202 0
229 202 0
231 202 0
234 202 0
236 202 0
239 202 0
242 202 0
244 202 0
247 202 0
249 202 0
252 202 0
255 202 0
0 208 0
2 208 0
5 208 0
7 208 0
10 208 0
12 208 0
15 208 0
18 208 0
20 208 0
23 208 0
25 208 0
28 208 0
30 208 0
33 208 0
36 208 0
38 208 0
41 208 0
43 208 0
46 208 0
48 208 0
51 208 0
54 208 0
56 208 0
59 208 0
61 208 0
64 208 0
66 208 0
69 208 0
72 208 0
74 208 0
77 208 0
79 208 0
82 208 0
85 208 0
87 208 0
90 208 0
92 208 0
95 208 0
97 208 0
100 208 0
103 208 0
105 208 0
108 208 0
110 208 0
113 208 0
115 208 0
118 208 0
121 208 0
123 208 0
126 208 0
128 208 0
131 208 0
133 208 0
136 208 0
139 208 0
141 208 0
144 208 0
146 208 0
149 208 0
151 208 0
154 208 0
157 208 0
159 208 0
162 208 0
164 208 0
167 208 0
170 208 0
172 208 0
175 208 0
177 208 0
180 208 0
182 208 0
185 208 0
188 208 0
190 208 0
193 208 0
195 208 0
198 208 0
200 208 0
203 208 0
206 208 0
208 208 0
211 208 0
213 208 0
216 208 0
218 208 0
221 208 0
224 208 0
226 208 0
229 208 0
231 208 0
234 208 0
236 208 0
239 208 0
242 208 0
244 208 0
247 208 0
249 208 0
252 208 0
255 208 0
0 213 0
2 213 0
5 213 0
7 213 0
10 213 0
12 213 0
15 213 0
18 213 0
20 213 0
23 213 0
25 213 0
28 213 0
30 213 0
33 213 0
36 213 0
38 213 0
41 213 0
43 213 0
46 213 0
48 213 0
51 213 0
54 213 0
56 213 0
59 213 0
61 213 0
64 213 0
66 213 0
69 213 0
72 213 0
74 213 0
77 213 0
79 213 0
82 213 0
85 213 0
87 213 0
90 213 0
92 213 0
95 213 0
97 213 0
100 213 0
103 213 0
105 213 0
108 213 0
110 213 0
113 213 0
115 213 0
118 213 0
121 213 0
123 213 0
126 213 0
128 213 0
131 213 0
133 213 0
136 213 0
139 213 0
141 213 0
144 213 0
146 213 0
149 213 0
151 213 0
154 213 0
157 213 0
159 213 0
162 213 0
164 213 0
167 213 0
170 213 0
172 213 0
175 213 0
177 213 0
180 213 0
182 213 0
185 213 0
188 213 0
190 213 0
193 213 0
195 213 0
198 213 0
200 213 0
203 213 0
206 213 0
208 213 0
211 213 0
213 213 0
216 213 0
218 213 0
221 213 0
224 213 0
226 213 0
229 213 0
231 213 0
234 213 0
236 213 0
239 213 0
242 213 0
244 213 0
247 213 0
249 213 0
252 213 0
255 213 0
0 218 0
2 218 0
5 218 0
7 218 0
10 218 0
12 218 0
15 218 0
18 218 0
20 218 0
23 218 0
25 218 0
28 218 0
30 218 0
33 218 0
36 218 0
38 218 0
41 218 0
43 218 0
46 218 0
48 218 0
51 218 0
54 218 0
56 218 0
59 218 0
61 218 0
64 218 0
66 218 0
69 218 0
72 218 0
74 218 0
77 218 0
79 218 0
82 218 0
85 218 0
87 218 0
90 218 0
92 218 0
95 218 0
97 218 0
100 218 0
103 218 0
105 218 0
108 218 0
110 218 0
113 218 0
115 218 0
118 218 0
121 218 0
123 218 0
126 218 0
128 218 0
131 218 0
133 218 0
136 218 0
139 218 0
141 218 0
144 218 0
146 218 0
149 218 0
151 218 0
154 218 0
157 218 0
159 218 0
162 218 0
164 218 0
167 218 0
170 218 0
172 218 0
175 218 0
177 218 0
180 218 0
182 218 0
185 218 0
188 218 0
190 218 0
193 218 0
195 218 0
198 218 0
200 218 0
203 218 0
206 218 0
208 218 0
211 218 0
213 218 0
216 218 0
218 218 0
221 218 0
224 218 0
226 218 0
229 218 0
231 218 0
234 218 0
236 218 0
239 218 0
242 218 0
244 218 0
247 218 0
249 218 0
252 218 0
255 218 0
0 223 0
2 223 0
5 223 0
7 223 0
10 223 0
12 223 0
15 223 0
18 223 0
20 223 0
23 223 0
25 223 0
28 223 0
30 223 0
33 223 0
36 223 0
38 223 0
41 223 0
43 223 0
46 223 0
48 223 0
51 223 0
54 223 0
56 223 0
59 223 0
61 223 0
64 223 0
66 223 0
69 223 0
72 223 0
74 223 0
77 223 0
79 223 0
82 223 0
85 223 0
87 223 0
90 223 0
92 223 0
95 223 0
97 223 0
100 223 0
103 223 0
105 223 0
108 223 0
110 223 0
113 223 0
115 223 0
118 223 0
121 223 0
123 223 0
126 223 0
128 223 0
131 223 0
133 223 0
136 223 0
139 223 0
141 223 0
144 223 0
146 223 0
149 223 0
151 223 0
154 223 0
157 223 0
159 223 0
162 223 0
164 223 0
167 223 0
170 223 0
172 223 0
175 223 0
177 223 0
180 223 0
182 223 0
185 223 0
188 223 0
190 223 0
193 223 0
195 223 0
198 223 0
200 223 0
203 223 0
206 223 0
208 223 0
211 223 0
213 223 0
216 223 0
218 223 0
221 223 0
224 223 0
226 223 0
229 223 0
231 223 0
234 223 0
236 223 0
239 223 0
242 223 0
244 223 0
247 223 0
249 223 0
252 223 0
255 223 0
0 228 0
2 228 0
5 228 0
7 228 0
10 228 0
12 228 0
15 228 0
18 228 0
20 228 0
23 228 0
25 228 0
28 228 0
30 228 0
33 228 0
36 228 0
38 228 0
41 228 0
43 228 0
46 228 0
48 228 0
51 228 0
54 228 0
56 228 0
59 228 0
61 228 0
64 228 0
66 228 0
69 228 0
72 228 0
74 228 0
77 228 0
79 228 0
82 228 0
85 228 0
87 228 0
90 228 0
92 228 0
95 228 0
97 228 0
100 228 0
103 228 0
105 228 0
108 228 0
110 228 0
113 228 0
115 228 0
118 228 0
121 228 0
123 228 0
126 228 0
128 228 0
131 228 0
133 228 0
136 228 0
139 228 0
141 228 0
144 228 0
146 228 0
149 228 0
151 228 0
154 228 0
157 228 0
159 228 0
162 228 0
164 228 0
167 228 0
170 228 0
172 228 0
175 228 0
177 228 0
180 228 0
182 228 0
185 228 0
188 228 0
190 228 0
193 228 0
195 228 0
198 228 0
200 228 0
203 228 0
206 228 0
208 228 0
211 228 0
213 228 0
216 228 0
218 228 0
221 228 0
224 228 0
226 228 0
229 228 0
231 228 0
234 228 0
236 228 0
239 228 0
242 228 0
244 228 0
247 228 0
249 228 0
252 228 0
255 228 0
0 234 0
2 234 0
5 234 0
7 234 0
10 234 0
12 234 0
15 234 0
18 234 0
20 234 0
23 234 0
25 234 0
28 234 0
30 234 0
33 234 0
36 234 0
38 234 0
41 234 0
43 234 0
46 234 0
48 234 0
51 234 0
54 234 0
56 234 0
59 234 0
61 234 0
64 234 0
66 234 0
69 234 0
72 234 0
74 234 0
77 234 0
79 234 0
82 234 0
85 234 0
87 234 0
90 234 0
92 234 0
95 234 0
97 234 0
100 234 0
103 234 0
105 234 0
108 234 0
110 234 0
113 234 0
115 234 0
118 234 0
121 234 0
123 234 0
126 234 0
128 234 0
131 234 0
133 234 0
136 234 0
139 234 0
141 234 0
144 234 0
146 234 0
149 234 0
151 234 0
154 234 0
157 234 0
159 234 0
162 234 0
164 234 0
167 234 0
170 234 0
172 234 0
175 234 0
177 234 0
180 234 0
182 234 0
185 234 0
188 234 0
190 234 0
193 234 0
195 234 0
198 234 0
200 234 0
203 234 0
206 234 0
208 234 0
211 234 0
213 234 0
216 234 0
218 234 0
221 234 0
224 234 0
226 234 0
229 234 0
231 234 0
234 234 0
236 234 0
239 234 0
242 234 0
244 234 0
247 234 0
249 234 0
252 234 0
255 234 0
0 239 0
2 239 0
5 239 0
7 239 0
10 239 0
12 239 0
15 239 0
18 239 0
20 239 0
23 239 0
25 239 0
28 239 0
30 239 0
33 239 0
36 239 0
38 239 0
41 239 0
43 239 0
46 239 0
48 239 0
51 239 0
54 239 0
56 239 0
59 239 0
61 239 0
64 239 0
66 239 0
69 239 0
72 239 0
74 239 0
77 239 0
79 239 0
82 239 0
85 239 0
87 239 0
90 239 0
92 239 0
95 239 0
97 239 0
100 239 0
103 239 0
105 239 0
108 239 0
110 239 0
113 239 0
115 239 0
118 239 0
121 239 0
123 239 0
126 239 0
128 239 0
131 239 0
133 239 0
136 239 0
139 239 0
141 239 0
144 239 0
146 239 0
149 239 0
151 239 0
154 239 0
157 239 0
159 239 0
162 239 0
164 239 0
167 239 0
170 239 0
172 239 0
175 239 0
177 239 0
180 239 0
182 239 0
185 239 0
188 239 0
190 239 0
193 239 0
195 239 0
198 239 0
200 239 0
203 239 0
206 239 0
208 239 0
211 239 0
213 239 0
216 239 0
218 239 0
221 239 0
224 239 0
226 239 0
229 239 0
231 239 0
234 239 0
236 239 0
239 239 0
242 239 0
244 239 0
247 239 0
249 239 0
252 239 0
255 239 0
0 244 0
2 244 0
5 244 0
7 244 0
10 244 0
12 244 0
15 244 0
18 244 0
20 244 0
23 244 0
25 244 0
28 244 0
30 244 0
33 244 0
36 244 0
38 244 0
41 244 0
43 244 0
46 244 0
48 244 0
51 244 0
54 244 0
56 244 0
59 244 0
61 244 0
64 244 0
66 244 0
69 244 0
72 244 0
74 244 0
77 244 0
79 244 0
82 244 0
85 244 0
87 244 0
90 244 0
92 244 0
95 244 0
97 244 0
100 244 0
103 244 0
105 244 0
108 244 0
110 244 0
113 244 0
115 244 0
118 244 0
121 244 0
123 244 0
126 244 0
128 244 0
131 244 0
133 244 0
136 244 0
139 244 0
141 244 0
144 244 0
146 244 0
149 244 0
151 244 0
154 244 0
157 244 0
159 244 0
162 244 0
164 244 0
167 244 0
170 244 0
172 244 0
175 244 0
177 244 0
180 244 0
182 244 0
185 244 0
188 244 0
190 244 0
193 244 0
195 244 0
198 244 0
200 244 0
203 244 0
206 244 0
208 244 0
211 244 0
213 244 0
216 244 0
218 244 0
221 244 0
224 244 0
226 244 0
229 244 0
231 244 0
234 244 0
236 244 0
239 244 0
242 244 0
244 244 0
247 244 0
249 244 0
252 244 0
255 244 0
0 249 0
2 249 0
5 249 0
7 249 0
10 249 0
12 249 0
15 249 0
18 249 0
20 249 0
23 249 0
25 249 0
28 249 0
30 249 0
33 249 0
36 249 0
38 249 0
41 249 0
43 249 0
46 249 0
48 249 0
51 249 0
54 249 0
56 249 0
59 249 0
61 249 0
64 249 0
66 249 0
69 249 0
72 249 0
74 249 0
77 249 0
79 249 0
82 249 0
85 249 0
87 249 0
90 249 0
92 249 0
95 249 0
97 249 0
100 249 0
103 249 0
105 249 0
108 249 0
110 249 0
113 249 0
115 249 0
118 249 0
121 249 0
123 249 0
126 249 0
128 249 0
131 249 0
133 249 0
136 249 0
139 249 0
141 249 0
144 249 0
146 249 0
149 249 0
151 249 0
154 249 0
157 249 0
159 249 0
162 249 0
164 249 0
167 249 0
170 249 0
172 249 0
175 249 0
177 249 0
180 249 0
182 249 0
185 249 0
188 249 0
190 249 0
193 249 0
195 249 0
198 249 0
200 249 0
203 249 0
206 249 0
208 249 0
211 249 0
213 249 0
216 249 0
218 249 0
221 249 0
224 249 0
226 249 0
229 249 0
231 249 0
234 249 0
236 249 0
239 249 0
242 249 0
244 249 0
247 249 0
249 249 0
252 249 0
255 249 0
0 255 0
2 255 0
5 255 0
7 255 0
10 255 0
12 255 0
15 255 0
18 255 0
20 255 0
23 255 0
25 255 0
28 255 0
30 255 0
33 255 0
36 255 0
38 255 0
41 255 0
43 255 0
46 255 0
48 255 0
51 255 0
54 255 0
56 255 0
59 255 0
61 255 0
64 255 0
66 255 0
69 255 0
72 255 0
74 255 0
77 255 0
79 255 0
82 255 0
85 255 0
87 255 0
90 255 0
92 255 0
95 255 0
97 255 0
100 255 0
103 255 0
105 255 0
108 255 0
110 255 0
113 255 0
115 255 0
118 255 0
121 255 0
123 255 0
126 255 0
128 255 0
131 255 0
133 255 0
136 255 0
139 255 0
141 255 0
144 255 0
146 255 0
149 255 0
151 255 0
154 255 0
157 255 0
159 255 0
162 255 0
164 255 0
167 255 0
170 255 0
172 255 0
175 255 0
177 255 0
180 255 0
182 255 0
185 255 0
188 255 0
190 255 0
193 255 0
195 255 0
198 255 0
200 255 0
203 255 0
206 255 0
208 255 0
211 255 0
213 255 0
216 255 0
218 255 0
221 255 0
224 255 0
226 255 0
229 255 0
231 255 0
234 255 0
236 255 0
239 255 0
242 255 0
244 255 0
247 255 0
249 255 0
252 255 0
255 255 0
